<svg xmlns="http://www.w3.org/2000/svg" viewBox="0 0 512 512">
  <rect width="512" height="512" rx="112" fill="#0071e3"/>
  <!-- Map pin -->
  <path d="M256 100c-66.3 0-120 53.7-120 120 0 90 120 192 120 192s120-102 120-192c0-66.3-53.7-120-120-120zm0 162c-23.2 0-42-18.8-42-42s18.8-42 42-42 42 18.8 42 42-18.8 42-42 42z" fill="white"/>
  <!-- Fork & chopstick accent -->
  <rect x="152" y="350" width="12" height="60" rx="6" fill="rgba(255,255,255,0.6)"/>
  <rect x="174" y="350" width="12" height="60" rx="6" fill="rgba(255,255,255,0.6)"/>
  <rect x="340" y="330" width="12" height="80" rx="6" fill="rgba(255,255,255,0.6)" transform="rotate(-20,346,370)"/>
  <rect x="360" y="330" width="12" height="80" rx="6" fill="rgba(255,255,255,0.6)" transform="rotate(20,366,370)"/>
</svg>
